<svg xmlns="http://www.w3.org/2000/svg" width="49.667" height="49.666" viewBox="0 0 49.667 49.666"><circle fill="none" stroke="#FFF" stroke-width="1.25" stroke-miterlimit="10" cx="24.833" cy="24.833" r="24.208"/><path fill="#FFF" d="M37.811 18.278c-.911.398-1.889.666-2.917.786a5.027 5.027 0 0 0 2.234-2.767c-.981.575-2.069.991-3.227 1.215a5.103 5.103 0 0 0-3.706-1.579c-2.804 0-5.078 2.239-5.078 4.999 0 .393.045.772.13 1.14a14.5 14.5 0 0 1-10.467-5.223 4.915 4.915 0 0 0-.689 2.513c0 1.733.899 3.263 2.26 4.16a5.131 5.131 0 0 1-2.301-.625v.062c0 .64.125 1.25.348 1.812a5.07 5.07 0 0 0 3.727 3.091 5.224 5.224 0 0 1-1.339.176 5.02 5.02 0 0 1-.955-.091c.647 1.986 2.522 3.432 4.744 3.472a10.287 10.287 0 0 1-6.308 2.141c-.411 0-.814-.024-1.213-.07a14.56 14.56 0 0 0 7.786 2.246c7.939 0 12.818-5.499 14.105-11.206a13.715 13.715 0 0 0 .331-3.664 10.204 10.204 0 0 0 2.535-2.588z"/></svg>